<svg width="1024" height="1024" viewBox="0 0 1024 1024" fill="none" xmlns="http://www.w3.org/2000/svg">
<g filter="url(#filter0_d_23_7)">
<path fill-rule="evenodd" clip-rule="evenodd" d="M924 355.627C924 345.845 924.004 336.062 923.944 326.279C923.895 318.038 923.8 309.799 923.576 301.562C923.092 283.609 922.033 265.502 918.84 247.749C915.602 229.741 910.314 212.98 901.981 196.617C893.789 180.534 883.088 165.817 870.32 153.058C857.555 140.299 842.834 129.605 826.746 121.418C810.366 113.083 793.587 107.797 775.558 104.56C757.803 101.372 739.691 100.315 721.738 99.83C713.495 99.607 705.253 99.513 697.008 99.462C687.22 99.402 677.432 99.407 667.644 99.407L553.997 99H468.997L357.361 99.407C347.554 99.407 337.747 99.402 327.94 99.462C319.678 99.513 311.42 99.607 303.161 99.83C285.167 100.315 267.014 101.373 249.217 104.565C231.164 107.801 214.36 113.085 197.958 121.414C181.835 129.602 167.083 140.297 154.291 153.058C141.501 165.816 130.78 180.53 122.573 196.61C114.217 212.981 108.919 229.752 105.673 247.77C102.477 265.516 101.418 283.617 100.931 301.562C100.709 309.8 100.613 318.039 100.563 326.279C100.503 336.063 100 348.216 100 357.999L100.003 468.089L100 553.998L100.508 666.427C100.508 676.223 100.504 686.019 100.563 695.815C100.613 704.067 100.709 712.317 100.932 720.566C101.418 738.542 102.479 756.675 105.678 774.452C108.923 792.484 114.22 809.269 122.569 825.653C130.777 841.759 141.5 856.495 154.291 869.272C167.082 882.049 181.83 892.757 197.95 900.956C214.362 909.302 231.174 914.595 249.238 917.836C267.027 921.029 285.174 922.088 303.161 922.573C311.42 922.796 319.679 922.891 327.941 922.941C337.748 923.001 347.554 922.997 357.361 922.997L470.006 923H555.217L667.644 922.996C677.432 922.996 687.22 923.001 697.008 922.941C705.253 922.891 713.495 922.796 721.738 922.573C739.698 922.087 757.816 921.027 775.579 917.832C793.597 914.591 810.368 909.3 826.739 900.959C842.831 892.761 857.554 882.051 870.32 869.272C883.086 856.497 893.786 841.763 901.978 825.66C910.316 809.268 915.604 792.475 918.844 774.431C922.034 756.661 923.092 738.535 923.577 720.566C923.8 712.316 923.895 704.066 923.944 695.815C924.005 686.019 924 676.223 924 666.427C924 666.427 923.994 555.983 923.994 553.998V467.999C923.994 466.533 924 355.627 924 355.627" fill="url(#paint0_linear_23_7)"/>
</g>
<mask id="mask0_23_7" style="mask-type:alpha" maskUnits="userSpaceOnUse" x="100" y="99" width="824" height="824">
<path fill-rule="evenodd" clip-rule="evenodd" d="M924 355.627C924 345.845 924.004 336.062 923.944 326.279C923.895 318.038 923.8 309.799 923.576 301.562C923.092 283.609 922.033 265.502 918.84 247.749C915.602 229.741 910.314 212.98 901.981 196.617C893.789 180.534 883.088 165.817 870.32 153.058C857.555 140.299 842.834 129.605 826.746 121.418C810.366 113.083 793.587 107.797 775.558 104.56C757.803 101.372 739.691 100.315 721.738 99.83C713.495 99.607 705.253 99.513 697.008 99.462C687.22 99.402 677.432 99.407 667.644 99.407L553.997 99H468.997L357.361 99.407C347.554 99.407 337.747 99.402 327.94 99.462C319.678 99.513 311.42 99.607 303.161 99.83C285.167 100.315 267.014 101.373 249.217 104.565C231.164 107.801 214.36 113.085 197.958 121.414C181.835 129.602 167.083 140.297 154.291 153.058C141.501 165.816 130.78 180.53 122.573 196.61C114.217 212.981 108.919 229.752 105.673 247.77C102.477 265.516 101.418 283.617 100.931 301.562C100.709 309.8 100.613 318.039 100.563 326.279C100.503 336.063 100 348.216 100 357.999L100.003 468.089L100 553.998L100.508 666.427C100.508 676.223 100.504 686.019 100.563 695.815C100.613 704.067 100.709 712.317 100.932 720.566C101.418 738.542 102.479 756.675 105.678 774.452C108.923 792.484 114.22 809.269 122.569 825.653C130.777 841.759 141.5 856.495 154.291 869.272C167.082 882.049 181.83 892.757 197.95 900.956C214.362 909.302 231.174 914.595 249.238 917.836C267.027 921.029 285.174 922.088 303.161 922.573C311.42 922.796 319.679 922.891 327.941 922.941C337.748 923.001 347.554 922.997 357.361 922.997L470.006 923H555.217L667.644 922.996C677.432 922.996 687.22 923.001 697.008 922.941C705.253 922.891 713.495 922.796 721.738 922.573C739.698 922.087 757.816 921.027 775.579 917.832C793.597 914.591 810.368 909.3 826.739 900.959C842.831 892.761 857.554 882.051 870.32 869.272C883.086 856.497 893.786 841.763 901.978 825.66C910.316 809.268 915.604 792.475 918.844 774.431C922.034 756.661 923.092 738.535 923.577 720.566C923.8 712.316 923.895 704.066 923.944 695.815C924.005 686.019 924 676.223 924 666.427C924 666.427 923.994 555.983 923.994 553.998V467.999C923.994 466.533 924 355.627 924 355.627" fill="white"/>
</mask>
<g mask="url(#mask0_23_7)">
<rect x="42" y="37" width="914" height="914" fill="url(#paint1_linear_23_7)"/>
<g filter="url(#filter1_b_23_7)">
<rect x="100" y="99" width="824" height="824" rx="126" fill="black" fill-opacity="0.01"/>
</g>
</g>
<g filter="url(#filter2_d_23_7)">
<rect x="272.429" y="334.706" width="389.566" height="264.05" rx="26.6603" fill="url(#paint2_linear_23_7)" shape-rendering="crispEdges"/>
</g>
<g filter="url(#filter3_d_23_7)">
<rect x="317.057" y="378.405" width="388.637" height="264.979" rx="22.3141" fill="url(#paint3_linear_23_7)" shape-rendering="crispEdges"/>
</g>
<g filter="url(#filter4_d_23_7)">
<rect x="361.685" y="423.033" width="388.637" height="264.979" rx="26.6603" fill="url(#paint4_linear_23_7)" shape-rendering="crispEdges"/>
</g>
<g filter="url(#filter5_d_23_7)">
<path d="M231 692.566V730.337C231 742.854 241.146 753 253.663 753H291.434" stroke="url(#paint5_linear_23_7)" stroke-width="22.3141" stroke-linecap="round" shape-rendering="crispEdges"/>
</g>
<g filter="url(#filter6_d_23_7)">
<path d="M291.434 271H253.663C241.147 271 231 281.146 231 293.663V331.434" stroke="url(#paint6_linear_23_7)" stroke-width="22.3141" stroke-linecap="round" shape-rendering="crispEdges"/>
</g>
<g filter="url(#filter7_d_23_7)">
<path d="M732.149 753H769.921C782.437 753 792.583 742.854 792.583 730.337V692.566" stroke="url(#paint7_linear_23_7)" stroke-width="22.3141" stroke-linecap="round" shape-rendering="crispEdges"/>
</g>
<g filter="url(#filter8_d_23_7)">
<path d="M792.583 331.434V293.663C792.583 281.146 782.437 271 769.921 271H732.149" stroke="url(#paint8_linear_23_7)" stroke-width="22.3141" stroke-linecap="round" shape-rendering="crispEdges"/>
</g>
<defs>
<filter id="filter0_d_23_7" x="90" y="99" width="844" height="844" filterUnits="userSpaceOnUse" color-interpolation-filters="sRGB">
<feFlood flood-opacity="0" result="BackgroundImageFix"/>
<feColorMatrix in="SourceAlpha" type="matrix" values="0 0 0 0 0 0 0 0 0 0 0 0 0 0 0 0 0 0 127 0" result="hardAlpha"/>
<feOffset dy="10"/>
<feGaussianBlur stdDeviation="5"/>
<feColorMatrix type="matrix" values="0 0 0 0 0 0 0 0 0 0 0 0 0 0 0 0 0 0 0.3 0"/>
<feBlend mode="normal" in2="BackgroundImageFix" result="effect1_dropShadow_23_7"/>
<feBlend mode="normal" in="SourceGraphic" in2="effect1_dropShadow_23_7" result="shape"/>
</filter>
<filter id="filter1_b_23_7" x="89.1269" y="88.1269" width="845.746" height="845.746" filterUnits="userSpaceOnUse" color-interpolation-filters="sRGB">
<feFlood flood-opacity="0" result="BackgroundImageFix"/>
<feGaussianBlur in="BackgroundImageFix" stdDeviation="5.43656"/>
<feComposite in2="SourceAlpha" operator="in" result="effect1_backgroundBlur_23_7"/>
<feBlend mode="normal" in="SourceGraphic" in2="effect1_backgroundBlur_23_7" result="shape"/>
</filter>
<filter id="filter2_d_23_7" x="257.553" y="327.268" width="419.318" height="293.802" filterUnits="userSpaceOnUse" color-interpolation-filters="sRGB">
<feFlood flood-opacity="0" result="BackgroundImageFix"/>
<feColorMatrix in="SourceAlpha" type="matrix" values="0 0 0 0 0 0 0 0 0 0 0 0 0 0 0 0 0 0 127 0" result="hardAlpha"/>
<feOffset dy="7.43802"/>
<feGaussianBlur stdDeviation="7.43802"/>
<feComposite in2="hardAlpha" operator="out"/>
<feColorMatrix type="matrix" values="0 0 0 0 0 0 0 0 0 0 0 0 0 0 0 0 0 0 0.25 0"/>
<feBlend mode="normal" in2="BackgroundImageFix" result="effect1_dropShadow_23_7"/>
<feBlend mode="normal" in="SourceGraphic" in2="effect1_dropShadow_23_7" result="shape"/>
</filter>
<filter id="filter3_d_23_7" x="302.181" y="370.967" width="418.389" height="294.732" filterUnits="userSpaceOnUse" color-interpolation-filters="sRGB">
<feFlood flood-opacity="0" result="BackgroundImageFix"/>
<feColorMatrix in="SourceAlpha" type="matrix" values="0 0 0 0 0 0 0 0 0 0 0 0 0 0 0 0 0 0 127 0" result="hardAlpha"/>
<feOffset dy="7.43802"/>
<feGaussianBlur stdDeviation="7.43802"/>
<feComposite in2="hardAlpha" operator="out"/>
<feColorMatrix type="matrix" values="0 0 0 0 0 0 0 0 0 0 0 0 0 0 0 0 0 0 0.25 0"/>
<feBlend mode="normal" in2="BackgroundImageFix" result="effect1_dropShadow_23_7"/>
<feBlend mode="normal" in="SourceGraphic" in2="effect1_dropShadow_23_7" result="shape"/>
</filter>
<filter id="filter4_d_23_7" x="346.809" y="415.595" width="418.389" height="294.732" filterUnits="userSpaceOnUse" color-interpolation-filters="sRGB">
<feFlood flood-opacity="0" result="BackgroundImageFix"/>
<feColorMatrix in="SourceAlpha" type="matrix" values="0 0 0 0 0 0 0 0 0 0 0 0 0 0 0 0 0 0 127 0" result="hardAlpha"/>
<feOffset dy="7.43802"/>
<feGaussianBlur stdDeviation="7.43802"/>
<feComposite in2="hardAlpha" operator="out"/>
<feColorMatrix type="matrix" values="0 0 0 0 0 0 0 0 0 0 0 0 0 0 0 0 0 0 0.25 0"/>
<feBlend mode="normal" in2="BackgroundImageFix" result="effect1_dropShadow_23_7"/>
<feBlend mode="normal" in="SourceGraphic" in2="effect1_dropShadow_23_7" result="shape"/>
</filter>
<filter id="filter5_d_23_7" x="204.967" y="673.971" width="112.5" height="112.5" filterUnits="userSpaceOnUse" color-interpolation-filters="sRGB">
<feFlood flood-opacity="0" result="BackgroundImageFix"/>
<feColorMatrix in="SourceAlpha" type="matrix" values="0 0 0 0 0 0 0 0 0 0 0 0 0 0 0 0 0 0 127 0" result="hardAlpha"/>
<feOffset dy="7.43802"/>
<feGaussianBlur stdDeviation="7.43802"/>
<feComposite in2="hardAlpha" operator="out"/>
<feColorMatrix type="matrix" values="0 0 0 0 0 0 0 0 0 0 0 0 0 0 0 0 0 0 0.25 0"/>
<feBlend mode="normal" in2="BackgroundImageFix" result="effect1_dropShadow_23_7"/>
<feBlend mode="normal" in="SourceGraphic" in2="effect1_dropShadow_23_7" result="shape"/>
</filter>
<filter id="filter6_d_23_7" x="204.967" y="252.405" width="112.5" height="112.5" filterUnits="userSpaceOnUse" color-interpolation-filters="sRGB">
<feFlood flood-opacity="0" result="BackgroundImageFix"/>
<feColorMatrix in="SourceAlpha" type="matrix" values="0 0 0 0 0 0 0 0 0 0 0 0 0 0 0 0 0 0 127 0" result="hardAlpha"/>
<feOffset dy="7.43802"/>
<feGaussianBlur stdDeviation="7.43802"/>
<feComposite in2="hardAlpha" operator="out"/>
<feColorMatrix type="matrix" values="0 0 0 0 0 0 0 0 0 0 0 0 0 0 0 0 0 0 0.25 0"/>
<feBlend mode="normal" in2="BackgroundImageFix" result="effect1_dropShadow_23_7"/>
<feBlend mode="normal" in="SourceGraphic" in2="effect1_dropShadow_23_7" result="shape"/>
</filter>
<filter id="filter7_d_23_7" x="706.116" y="673.971" width="112.5" height="112.5" filterUnits="userSpaceOnUse" color-interpolation-filters="sRGB">
<feFlood flood-opacity="0" result="BackgroundImageFix"/>
<feColorMatrix in="SourceAlpha" type="matrix" values="0 0 0 0 0 0 0 0 0 0 0 0 0 0 0 0 0 0 127 0" result="hardAlpha"/>
<feOffset dy="7.43802"/>
<feGaussianBlur stdDeviation="7.43802"/>
<feComposite in2="hardAlpha" operator="out"/>
<feColorMatrix type="matrix" values="0 0 0 0 0 0 0 0 0 0 0 0 0 0 0 0 0 0 0.25 0"/>
<feBlend mode="normal" in2="BackgroundImageFix" result="effect1_dropShadow_23_7"/>
<feBlend mode="normal" in="SourceGraphic" in2="effect1_dropShadow_23_7" result="shape"/>
</filter>
<filter id="filter8_d_23_7" x="706.116" y="252.405" width="112.5" height="112.5" filterUnits="userSpaceOnUse" color-interpolation-filters="sRGB">
<feFlood flood-opacity="0" result="BackgroundImageFix"/>
<feColorMatrix in="SourceAlpha" type="matrix" values="0 0 0 0 0 0 0 0 0 0 0 0 0 0 0 0 0 0 127 0" result="hardAlpha"/>
<feOffset dy="7.43802"/>
<feGaussianBlur stdDeviation="7.43802"/>
<feComposite in2="hardAlpha" operator="out"/>
<feColorMatrix type="matrix" values="0 0 0 0 0 0 0 0 0 0 0 0 0 0 0 0 0 0 0.25 0"/>
<feBlend mode="normal" in2="BackgroundImageFix" result="effect1_dropShadow_23_7"/>
<feBlend mode="normal" in="SourceGraphic" in2="effect1_dropShadow_23_7" result="shape"/>
</filter>
<linearGradient id="paint0_linear_23_7" x1="-181.14" y1="99" x2="-181.14" y2="1485.28" gradientUnits="userSpaceOnUse">
<stop stop-color="white"/>
<stop offset="0.489516" stop-color="#EFEFEF"/>
<stop offset="1" stop-color="#C0C0C0"/>
</linearGradient>
<linearGradient id="paint1_linear_23_7" x1="928.377" y1="993.826" x2="928.377" y2="135.072" gradientUnits="userSpaceOnUse">
<stop stop-color="#0A8CB5"/>
<stop offset="1" stop-color="#24A5ED"/>
</linearGradient>
<linearGradient id="paint2_linear_23_7" x1="467.212" y1="334.706" x2="467.212" y2="598.756" gradientUnits="userSpaceOnUse">
<stop stop-color="white" stop-opacity="0.88"/>
<stop offset="1" stop-color="white" stop-opacity="0.48"/>
</linearGradient>
<linearGradient id="paint3_linear_23_7" x1="511.375" y1="378.405" x2="511.375" y2="643.384" gradientUnits="userSpaceOnUse">
<stop stop-color="white" stop-opacity="0.88"/>
<stop offset="1" stop-color="white" stop-opacity="0.48"/>
</linearGradient>
<linearGradient id="paint4_linear_23_7" x1="556.003" y1="423.033" x2="556.003" y2="688.012" gradientUnits="userSpaceOnUse">
<stop stop-color="white" stop-opacity="0.88"/>
<stop offset="1" stop-color="white" stop-opacity="0.48"/>
</linearGradient>
<linearGradient id="paint5_linear_23_7" x1="261.217" y1="692.566" x2="261.217" y2="753" gradientUnits="userSpaceOnUse">
<stop stop-color="white" stop-opacity="0.88"/>
<stop offset="1" stop-color="white" stop-opacity="0.48"/>
</linearGradient>
<linearGradient id="paint6_linear_23_7" x1="291.434" y1="301.217" x2="231" y2="301.217" gradientUnits="userSpaceOnUse">
<stop stop-color="white" stop-opacity="0.88"/>
<stop offset="1" stop-color="white" stop-opacity="0.48"/>
</linearGradient>
<linearGradient id="paint7_linear_23_7" x1="732.149" y1="722.783" x2="792.583" y2="722.783" gradientUnits="userSpaceOnUse">
<stop stop-color="white" stop-opacity="0.72"/>
<stop offset="1" stop-color="white" stop-opacity="0.48"/>
</linearGradient>
<linearGradient id="paint8_linear_23_7" x1="762.366" y1="331.434" x2="762.366" y2="271" gradientUnits="userSpaceOnUse">
<stop stop-color="white" stop-opacity="0.88"/>
<stop offset="1" stop-color="white" stop-opacity="0.48"/>
</linearGradient>
</defs>
</svg>
